<svg width="32" height="32" viewBox="0 0 32 32" fill="none" xmlns="http://www.w3.org/2000/svg">
<circle cx="15.581" cy="16.3162" r="14.581" fill="#E9FFDB"/>
<path d="M12.3004 2.78354C13.84 0.405487 17.3234 0.405487 18.8629 2.78354L20.232 4.89841C20.9141 5.95204 22.0619 6.61385 23.3165 6.677L25.835 6.80377C28.6668 6.94631 30.4085 9.95917 29.1162 12.4798L27.9669 14.7214C27.3943 15.8382 27.3943 17.1618 27.9669 18.2786L29.1162 20.5202C30.4085 23.0408 28.6668 26.0537 25.835 26.1962L23.3165 26.323C22.0619 26.3862 20.9141 27.048 20.232 28.1016L18.8629 30.2165C17.3234 32.5945 13.84 32.5945 12.3005 30.2165L10.9313 28.1016C10.2492 27.048 9.10146 26.3862 7.84678 26.323L5.32834 26.1962C2.49651 26.0537 0.754818 23.0408 2.04713 20.5202L3.19643 18.2786C3.769 17.1618 3.769 15.8382 3.19643 14.7214L2.04713 12.4798C0.754818 9.95917 2.49651 6.94631 5.32834 6.80377L7.84678 6.677C9.10146 6.61385 10.2492 5.95204 10.9313 4.89841L12.3004 2.78354Z" fill="#92D6DE"/>
</svg>
