<svg width="438" height="486" viewBox="0 0 438 486" fill="none" xmlns="http://www.w3.org/2000/svg">
<path fill-rule="evenodd" clip-rule="evenodd" d="M270.444 27.9613C246.306 -9.32045 191.693 -9.32045 167.556 27.9613L146.09 61.117C135.396 77.6351 117.402 88.0105 97.7305 89.0007L58.2457 90.988C13.8475 93.2228 -13.4592 140.457 6.80203 179.973L24.821 215.116C33.798 232.625 33.798 253.375 24.821 270.885L6.80203 306.026C-13.4592 345.544 13.8475 392.776 58.2457 395.012L97.7305 396.999C117.402 397.99 135.396 408.365 146.09 424.883L167.556 458.039C191.693 495.32 246.306 495.32 270.444 458.039L291.91 424.883C302.604 408.365 320.599 397.99 340.27 396.999L379.754 395.012C424.153 392.776 451.459 345.544 431.197 306.026L413.18 270.885C404.203 253.375 404.203 232.625 413.178 215.116L431.197 179.973C451.459 140.457 424.153 93.2228 379.754 90.988L340.27 89.0007C320.599 88.0105 302.604 77.6351 291.91 61.117L270.444 27.9613ZM281.985 171.731H155.985V189.413H281.985V171.731ZM281.985 236.227H155.985V315.731L218.972 280.352L281.985 315.731V236.227ZM281.985 203.979H155.985V221.661H281.985V203.979Z" fill="url(#paint0_linear_2_20)"/>
<defs>
<linearGradient id="paint0_linear_2_20" x1="219" y1="-1.45e-05" x2="219" y2="486" gradientUnits="userSpaceOnUse">
<stop stop-color="#30AFBF"/>
<stop offset="1" stop-color="#007483"/>
</linearGradient>
</defs>
</svg>
