<svg width="278" height="306" viewBox="0 0 278 306" fill="none" xmlns="http://www.w3.org/2000/svg">
<path d="M94.1891 25.7549C114.878 -7.37428 163.122 -7.37426 183.811 25.7549V25.7549C193.119 40.6602 209.23 49.9615 226.792 50.5701V50.5701C265.827 51.9228 289.949 93.7029 271.603 128.185V128.185C263.349 143.699 263.349 162.301 271.603 177.815V177.815C289.949 212.297 265.827 254.077 226.792 255.43V255.43C209.23 256.039 193.119 265.34 183.811 280.245V280.245C163.122 313.374 114.878 313.374 94.1891 280.245V280.245C84.8808 265.34 68.7704 256.039 51.208 255.43V255.43C12.1727 254.077 -11.9491 212.297 6.39706 177.815V177.815C14.6512 162.301 14.6512 143.699 6.39706 128.185V128.185C-11.9491 93.7029 12.1727 51.9228 51.208 50.5701V50.5701C68.7704 49.9615 84.8808 40.6602 94.1891 25.7549V25.7549Z" fill="#89AFD1" fill-opacity="0.55"/>
</svg>
