<svg width="228" height="253" viewBox="0 0 228 253" fill="none" xmlns="http://www.w3.org/2000/svg">
<path d="M87.2211 14.556C99.7856 -4.85199 128.214 -4.85199 140.779 14.556L151.953 31.8161C157.52 40.415 166.887 45.8162 177.127 46.3317L197.68 47.3662C220.792 48.5296 235.006 73.1184 224.459 93.6897L215.079 111.984C210.407 121.099 210.407 131.901 215.08 141.016L224.459 159.31C235.006 179.882 220.792 204.47 197.68 205.634L177.127 206.668C166.887 207.184 157.52 212.585 151.953 221.184L140.779 238.444C128.214 257.852 99.7856 257.852 87.2211 238.444L76.0471 221.184C70.4803 212.585 61.1132 207.184 50.8734 206.668L30.3197 205.634C7.20829 204.47 -7.00616 179.882 3.54079 159.31L12.9205 141.016C17.5935 131.901 17.5935 121.099 12.9205 111.984L3.54079 93.6897C-7.00617 73.1184 7.20828 48.5296 30.3197 47.3662L50.8734 46.3317C61.1132 45.8162 70.4803 40.415 76.0471 31.8161L87.2211 14.556Z" fill="#92D6DE"/>
</svg>
