<svg width="1200" height="295" viewBox="0 0 1200 295" fill="none" xmlns="http://www.w3.org/2000/svg">
<path fill-rule="evenodd" clip-rule="evenodd" d="M0 6.55677L25 36.5568C50 66.5568 100 126.557 150 150.557C200 174.557 250 162.557 300 180.557C350 198.557 400 246.557 450 216.557C500 186.557 550 78.5568 600 30.5568C650 -17.4432 700 -5.44323 750 42.5568C800 90.5568 850 174.557 900 162.557C950 150.557 1000 42.5568 1050 18.5568C1100 -5.44323 1150 54.5568 1175 84.5568L1200 114.557V294.557H1175C1150 294.557 1100 294.557 1050 294.557C1000 294.557 950 294.557 900 294.557C850 294.557 800 294.557 750 294.557C700 294.557 650 294.557 600 294.557C550 294.557 500 294.557 450 294.557C400 294.557 350 294.557 300 294.557C250 294.557 200 294.557 150 294.557C100 294.557 50 294.557 25 294.557H0V6.55677Z" fill="url(#paint0_linear_105_11)"/>
<defs>
<linearGradient id="paint0_linear_105_11" x1="600" y1="0" x2="600" y2="475" gradientUnits="userSpaceOnUse">
<stop stop-color="#87D7AA"/>
<stop offset="1" stop-color="#01170B"/>
</linearGradient>
</defs>
</svg>
