<svg width="256" height="256" viewBox="0 0 256 256" fill="none" xmlns="http://www.w3.org/2000/svg">
<circle cx="128" cy="127" r="119" fill="#E9FFDB"/>
<path d="M101.221 16.556C113.786 -2.85199 142.214 -2.85199 154.779 16.556L165.953 33.8161C171.52 42.415 180.887 47.8162 191.127 48.3317L211.68 49.3662C234.792 50.5296 249.006 75.1184 238.459 95.6897L229.079 113.984C224.407 123.099 224.407 133.901 229.08 143.016L238.459 161.31C249.006 181.882 234.792 206.47 211.68 207.634L191.127 208.668C180.887 209.184 171.52 214.585 165.953 223.184L154.779 240.444C142.214 259.852 113.786 259.852 101.221 240.444L90.0471 223.184C84.4803 214.585 75.1132 209.184 64.8734 208.668L44.3197 207.634C21.2083 206.47 6.99384 181.882 17.5408 161.31L26.9205 143.016C31.5935 133.901 31.5935 123.099 26.9205 113.984L17.5408 95.6897C6.99383 75.1184 21.2083 50.5296 44.3197 49.3662L64.8734 48.3317C75.1132 47.8162 84.4803 42.415 90.0471 33.8161L101.221 16.556Z" fill="#92D6DE"/>
</svg>
